# xmcd
#
# Track frame offsets: 
#        150
#        14855
#        29550
#        43685
#        58095
#        72555
#        87090
#        100860
#        111830
#        125605
#        138650
#        152875
#        163825
#        178380
#        192755
#        204210
#        219000
#        233055
#        247195
#        258430
#
# Disc length: 3610 seconds
#
# Revision: 0
# Processed by: cddbd v1.5.2PL0 Copyright (c) Steve Scherf et al.
# Submitted via: ExactAudioCopy v1.0b1
#
DISCID=2d0e1814
DTITLE=Ella Fitzgerald - Voice of a Legend [CD1)
DYEAR=2008
DGENRE=Blues
TTITLE0=I've Got the World on a String
TTITLE1=How High the Moon
TTITLE2=Takin' a Chance on Love
TTITLE3=But not for Me
TTITLE4=Someone to Watch
TTITLE5=Oh, Lady be Good
TTITLE6=Black Coffee
TTITLE7=Happy Talk
TTITLE8=Dream a Little Dream of Me
TTITLE9=I'm Gonna Wash that Man Right outa my Hair
TTITLE10=For Sentimental Reasons
TTITLE11=That Old Feeling
TTITLE12=My One and Only
TTITLE13=Quilty
TTITLE14=I've Got a Feeling I'm Falling
TTITLE15=Sentimental Journey
TTITLE16=Smooth Sailing
TTITLE17=Crying
TTITLE18=Flying Home
TTITLE19=Moanin' Low
EXTD=
EXTT0=
EXTT1=
EXTT2=
EXTT3=
EXTT4=
EXTT5=
EXTT6=
EXTT7=
EXTT8=
EXTT9=
EXTT10=
EXTT11=
EXTT12=
EXTT13=
EXTT14=
EXTT15=
EXTT16=
EXTT17=
EXTT18=
EXTT19=
PLAYORDER=
